<svg xmlns="http://www.w3.org/2000/svg" viewBox="0 0 200 200" role="img" aria-label="Hundgym">
  <rect width="200" height="200" fill="#3A342E"/>
  <!-- Balansboll -->
  <ellipse cx="60" cy="140" rx="35" ry="34" fill="#8FA689"/>
  <ellipse cx="50" cy="130" rx="8" ry="12" fill="#C8D4C2" opacity="0.6"/>
  <!-- Hund på bollen -->
  <ellipse cx="60" cy="85" rx="20" ry="25" fill="#FDFCF9"/>
  <ellipse cx="55" cy="55" rx="14" ry="16" fill="#FDFCF9"/>
  <ellipse cx="47" cy="42" rx="5" ry="9" fill="#FDFCF9" transform="rotate(-20 47 42)"/>
  <ellipse cx="64" cy="42" rx="5" ry="9" fill="#FDFCF9" transform="rotate(20 64 42)"/>
  <circle cx="51" cy="57" r="1.5" fill="#1A1714"/>
  <circle cx="60" cy="57" r="1.5" fill="#1A1714"/>
  <!-- Vikt -->
  <rect x="120" y="110" width="55" height="10" rx="3" fill="#FDFCF9"/>
  <rect x="115" y="98" width="12" height="34" rx="2" fill="#FDFCF9"/>
  <rect x="168" y="98" width="12" height="34" rx="2" fill="#FDFCF9"/>
  <rect x="108" y="106" width="10" height="18" rx="2" fill="#FDFCF9"/>
  <rect x="177" y="106" width="10" height="18" rx="2" fill="#FDFCF9"/>
</svg>
