<svg xmlns="http://www.w3.org/2000/svg" viewBox="0 0 200 200" role="img" aria-label="Socialt">
  <rect width="200" height="200" fill="#F5F1E8"/>
  <!-- Två hundar sida vid sida -->
  <ellipse cx="60" cy="170" rx="32" ry="8" fill="#3F5A3D" opacity="0.3"/>
  <ellipse cx="140" cy="170" rx="32" ry="8" fill="#A84F5E" opacity="0.3"/>
  <!-- Sage hund vänster -->
  <ellipse cx="60" cy="130" rx="28" ry="35" fill="#3F5A3D"/>
  <ellipse cx="55" cy="92" rx="18" ry="20" fill="#3F5A3D"/>
  <ellipse cx="44" cy="75" rx="6" ry="11" fill="#3F5A3D" transform="rotate(-25 44 75)"/>
  <ellipse cx="66" cy="75" rx="6" ry="11" fill="#3F5A3D" transform="rotate(25 66 75)"/>
  <circle cx="50" cy="95" r="1.8" fill="#FDFCF9"/>
  <circle cx="61" cy="95" r="1.8" fill="#FDFCF9"/>
  <!-- Rose hund höger -->
  <ellipse cx="140" cy="130" rx="28" ry="35" fill="#A84F5E"/>
  <ellipse cx="145" cy="92" rx="18" ry="20" fill="#A84F5E"/>
  <ellipse cx="134" cy="75" rx="6" ry="11" fill="#A84F5E" transform="rotate(-25 134 75)"/>
  <ellipse cx="156" cy="75" rx="6" ry="11" fill="#A84F5E" transform="rotate(25 156 75)"/>
  <circle cx="140" cy="95" r="1.8" fill="#FDFCF9"/>
  <circle cx="151" cy="95" r="1.8" fill="#FDFCF9"/>
  <!-- Hjärta i mitten -->
  <path d="M100 62 C92 52, 78 52, 78 64 C78 76, 100 88, 100 88 C100 88, 122 76, 122 64 C122 52, 108 52, 100 62 Z" fill="#C77B89" opacity="0.85"/>
</svg>
